<svg width="448" height="428" viewBox="0 0 448 428" fill="none" xmlns="http://www.w3.org/2000/svg">
<path d="M204.125 12.1226C212.997 -3.10958 235.003 -3.10961 243.875 12.1225L301.659 111.332C304.909 116.912 310.355 120.869 316.666 122.235L428.876 146.534C446.105 150.265 452.905 171.193 441.16 184.338L364.662 269.952C360.359 274.767 358.279 281.169 358.93 287.593L370.495 401.821C372.271 419.358 354.468 432.293 338.337 425.185L233.275 378.887C227.366 376.283 220.634 376.283 214.725 378.887L109.663 425.185C93.5318 432.293 75.7291 419.358 77.5048 401.821L89.0703 287.593C89.7207 281.169 87.6406 274.767 83.3382 269.952L6.84042 184.338C-4.90464 171.193 1.89536 150.265 19.1236 146.534L131.334 122.235C137.645 120.869 143.091 116.912 146.341 111.332L204.125 12.1226Z" fill="#C4C4C4"/>
<path d="M204.125 12.1226C212.997 -3.10958 235.003 -3.10961 243.875 12.1225L301.659 111.332C304.909 116.912 310.355 120.869 316.666 122.235L428.876 146.534C446.105 150.265 452.905 171.193 441.16 184.338L364.662 269.952C360.359 274.767 358.279 281.169 358.93 287.593L370.495 401.821C372.271 419.358 354.468 432.293 338.337 425.185L233.275 378.887C227.366 376.283 220.634 376.283 214.725 378.887L109.663 425.185C93.5318 432.293 75.7291 419.358 77.5048 401.821L89.0703 287.593C89.7207 281.169 87.6406 274.767 83.3382 269.952L6.84042 184.338C-4.90464 171.193 1.89536 150.265 19.1236 146.534L131.334 122.235C137.645 120.869 143.091 116.912 146.341 111.332L204.125 12.1226Z" fill="#E7DE1D"/>
</svg>
